<?xml version="1.0" encoding="UTF-8"?>
<svg version="1.1" xmlns="http://www.w3.org/2000/svg" width="68" height="53">
<path d="M0 0 C22.44 0 44.88 0 68 0 C68 17.49 68 34.98 68 53 C45.56 53 23.12 53 0 53 C0 35.51 0 18.02 0 0 Z " fill="#F3F6F7" transform="translate(0,0)"/>
<path d="M0 0 C0.77120178 0.00424484 1.54240356 0.00848969 2.3369751 0.01286316 C4.79271815 0.02961492 7.24763129 0.06725936 9.703125 0.10546875 C11.37108187 0.12052018 13.03905165 0.13420778 14.70703125 0.14648438 C18.78938078 0.17950681 22.87111232 0.23126391 26.953125 0.29296875 C23.53044616 6.22457418 23.53044616 6.22457418 19.953125 7.29296875 C17.16487742 7.43294102 14.48485384 7.48186005 11.703125 7.41796875 C10.95804688 7.40894531 10.21296875 7.39992188 9.4453125 7.390625 C7.61444441 7.36715233 5.78374262 7.331284 3.953125 7.29296875 C2.963125 10.92296875 1.973125 14.55296875 0.953125 18.29296875 C6.563125 18.29296875 12.173125 18.29296875 17.953125 18.29296875 C15.5037633 24.41637301 15.5037633 24.41637301 11.953125 26.29296875 C8.5 26.8046875 8.5 26.8046875 4.703125 26.98046875 C3.43984375 27.04621094 2.1765625 27.11195312 0.875 27.1796875 C-0.08921875 27.21707031 -1.0534375 27.25445313 -2.046875 27.29296875 C-2.33820312 28.10121094 -2.62953125 28.90945312 -2.9296875 29.7421875 C-7.45820254 41.54765596 -7.45820254 41.54765596 -13.046875 44.29296875 C-17.74527887 44.67619052 -22.34541587 44.58278472 -27.046875 44.29296875 C-24.98479 36.43449017 -22.6551085 28.69525351 -20.109375 20.98046875 C-19.77486328 19.93568359 -19.44035156 18.89089844 -19.09570312 17.81445312 C-15.54761233 7.06079836 -12.42244354 -0.25820612 0 0 Z " fill="#2C5063" transform="translate(35.046875,4.70703125)"/>
<path d="M0 0 C1.15255783 0.01061211 1.15255783 0.01061211 2.32839966 0.0214386 C4.76422667 0.04925829 7.19768954 0.11196523 9.6328125 0.17578125 C11.29163328 0.20088055 12.95049038 0.22369086 14.609375 0.24414062 C18.65975448 0.29904307 22.70838377 0.38522218 26.7578125 0.48828125 C23.33513366 6.41988668 23.33513366 6.41988668 19.7578125 7.48828125 C16.96956492 7.62825352 14.28954134 7.67717255 11.5078125 7.61328125 C10.76273438 7.60425781 10.01765625 7.59523438 9.25 7.5859375 C7.41913191 7.56246483 5.58843012 7.5265965 3.7578125 7.48828125 C3.63664062 8.11476563 3.51546875 8.74125 3.390625 9.38671875 C3.22304688 10.20398437 3.05546875 11.02125 2.8828125 11.86328125 C2.72039063 12.67539062 2.55796875 13.4875 2.390625 14.32421875 C1.7578125 16.48828125 1.7578125 16.48828125 -0.2421875 18.48828125 C-3.75014306 18.83952141 -7.23866476 18.93179104 -10.76171875 19.046875 C-14.37194548 19.50473765 -16.31155475 20.39497215 -19.2421875 22.48828125 C-18.60905149 15.20721712 -16.89037584 8.18519847 -11.66821289 2.86694336 C-8.03697317 -0.06762655 -4.52897248 -0.15909921 0 0 Z " fill="#2B3B51" transform="translate(35.2421875,4.51171875)"/>
<path d="M0 0 C-1.26248679 3.89266762 -2.33982156 6.04251917 -6 8 C-9.14453125 8.51171875 -9.14453125 8.51171875 -12.8125 8.6875 C-13.46250977 8.72166016 -14.11251953 8.75582031 -14.78222656 8.79101562 C-20.83870937 9.07595817 -26.89237462 9.03979115 -32.953125 8.9375 C-36.04508085 8.85019074 -36.04508085 8.85019074 -39 10 C-38.67 7.36 -38.34 4.72 -38 2 C-37.01 2 -36.02 2 -35 2 C-34.01 1.34 -33.02 0.68 -32 0 C-21.41328739 -1.74673164 -10.63171895 -0.7835167 0 0 Z " fill="#5EA8B8" transform="translate(53,23)"/>
</svg>
